<svg width="801" height="1176" viewBox="0 0 801 1176" fill="none" xmlns="http://www.w3.org/2000/svg">
<rect x="1" y="1" width="800" height="1175" rx="25" fill="white"/>
<path d="M151 301V1.00001" stroke="url(#paint0_linear_181_25)" stroke-opacity="0.4" stroke-width="2" stroke-linecap="round" stroke-dasharray="4 4"/>
<path d="M76 301V1.00001" stroke="url(#paint1_linear_181_25)" stroke-opacity="0.4" stroke-width="2" stroke-linecap="round" stroke-dasharray="4 4"/>
<path d="M1 226H188.5" stroke="url(#paint2_linear_181_25)" stroke-opacity="0.4" stroke-width="2" stroke-linecap="round" stroke-dasharray="4 4"/>
<path d="M1 76L188.5 76" stroke="url(#paint3_linear_181_25)" stroke-opacity="0.4" stroke-width="2" stroke-linecap="round" stroke-dasharray="4 4"/>
<path d="M508.129 500.397C465.064 629.329 350.198 669.094 289.465 508.993C281.087 486.983 302.923 478.822 318.204 469.098C328.666 462.456 334.179 456.725 333.528 450.778C330.489 422.821 317.509 344.941 317.509 344.941L316.207 342.423C316.207 342.423 316.511 341.729 315.252 342.944C313.949 344.246 310.954 357.791 299.19 357.791C288.554 357.791 277.831 353.059 272.709 320.327C270.755 308.475 271.797 277.393 284.994 271.749C290.42 269.449 295.413 268.624 300.275 271.402C305.18 274.18 294.631 261.852 348.896 216.704C384.146 187.271 439.842 182.973 462.33 187.965C484.817 192.958 507.26 203.941 517.201 227.253C529.27 255.47 505.958 276.872 511.124 341.208C510.169 364.476 511.471 415.528 447.483 432.632C435.328 435.888 439.104 453.643 457.337 457.984C486.423 467.101 508.129 489.371 508.129 500.484" fill="white"/>
<path fill-rule="evenodd" clip-rule="evenodd" d="M508.142 300.066L508.186 299.458C509.965 283.657 511.745 268.332 519.95 254.571C522.772 256.481 522.424 258.912 521.556 261.17C512.917 283.396 513.742 306.491 514.524 329.586L514.697 335.663C515.609 364.489 508.403 390.709 489.215 412.719C482.529 420.359 473.673 425.655 464.687 430.213C455.397 434.989 453.444 438.939 456.352 449.141L456.7 450.27C457.307 451.963 457.915 453.699 456.265 455.392C454.312 457.389 452.141 456.825 449.841 456.173L449.58 456.13C428.056 450.103 407.874 440.042 390.107 426.48C387.502 424.57 385.418 422.009 383.378 419.491L383.248 419.317C382.162 418.015 381.945 415.931 383.465 414.802C384.897 413.717 385.982 414.585 387.241 415.584L387.675 415.975C397.155 423.666 408.66 428.446 420.798 429.736C426.616 430.344 432.346 430.127 438.163 429.91C441.375 429.779 444.588 429.649 447.844 429.693C452.272 429.693 455.962 427.652 459.435 425.699L460.65 425.004C472.718 418.275 484.222 410.765 491.993 398.653C498.982 387.801 503.237 375.993 505.711 363.534C508.837 347.862 508.576 331.974 508.316 315.868C508.186 310.659 508.099 305.362 508.099 300.066H508.142ZM289.609 267.334C299.116 266.596 304.369 272.196 308.84 278.751C314.14 286.76 317.472 295.908 318.565 305.449C318.782 307.055 318.999 308.748 318.044 310.355C316.09 310.615 315.916 309.052 315.873 307.924C315.656 298.937 311.662 291.123 307.668 283.57C304.803 278.143 300.636 272.891 294.037 271.588C286.57 270.069 279.711 276.798 276.325 285.567C270.031 301.889 271.116 317.952 276.933 333.753C279.451 340.656 282.62 347.688 289.001 352.507C295.426 357.413 303.197 356.544 307.929 350.033L308.797 348.947C309.665 347.819 310.533 346.733 310.968 345.474C311.879 342.957 313.312 340.612 315.873 340.96C318.825 341.394 319.346 344.563 319.65 347.037C322.343 369.779 325.527 392.459 329.2 415.063L331.762 431.907C332.89 439.33 334.193 450.009 333.324 454.524C333.268 454.84 333.225 455.159 333.194 455.479C333.021 456.694 332.934 457.649 331.371 457.867C329.244 458.214 328.332 456.998 328.028 455.088C327.03 447.708 326.726 444.843 326.292 433.556C325.901 422.616 323.861 411.85 321.777 401.041L319.606 389.32C317.349 375.949 315.135 362.405 314.918 347.211L314.05 348.513C310.75 353.419 308.102 357.413 303.414 358.932C299.934 360.265 296.12 360.458 292.523 359.483C288.925 358.508 285.731 356.414 283.401 353.506C277.284 346.596 272.987 338.271 270.899 329.282C267.252 314.522 266.601 300.153 271.29 285.61C273.547 278.621 281.578 266.205 289.609 267.377V267.334ZM304.629 322.683C306.54 324.073 308.276 325.288 309.839 320.339C309.361 302.02 303.457 290.299 294.298 289.821C299.16 296.159 303.848 302.324 304.282 310.876C302.476 309.953 300.891 308.65 299.637 307.055C298.769 306.1 297.901 305.145 296.815 304.451L295.513 303.409C293.429 301.846 291.302 300.196 287.786 301.455C289.435 303.973 291.693 305.796 293.994 307.533C296.598 309.573 299.203 311.57 300.766 314.696C296.164 318.038 294.167 322.38 296.555 327.676C298.639 332.234 301.721 336.011 307.798 336.271C307.538 333.536 305.758 331.539 303.978 329.586C301.808 327.242 299.767 324.984 300.722 321.511C302.112 320.86 303.414 321.815 304.629 322.683Z" fill="black"/>
<path d="M684.569 734.957L118.615 733.524C118.615 733.524 133.115 642.49 160.42 590.701C167.8 576.635 195.584 534.83 221.978 508.393C239.69 490.594 260.05 484.082 260.614 481.478C261.569 477.267 255.839 463.505 256.794 460.423C260.31 449.353 260.918 460.77 275.07 446.618C283.014 438.717 275.678 433.768 284.447 427.864C297.383 419.182 310.494 424.088 322.215 424.565C330.029 424.869 327.598 446.401 334.066 451.697C351.561 465.98 373.918 475.139 389.632 479.264C409.645 484.56 416.374 478.178 426.706 473.967C437.038 469.8 443.419 479.264 456.616 459.555C462.781 450.352 451.841 441.062 460.176 436.113C473.243 428.342 493.038 428.602 501.243 432.813C513.789 439.238 508.319 450.873 508.319 450.873C508.319 450.873 523.817 455.908 526.986 460.423C530.112 464.764 529.157 479.524 529.157 479.524C529.157 479.524 527.941 473.577 556.679 489.726C593.232 510.303 634.473 570.992 653.487 618.223C673.717 668.494 684.569 735 684.569 735V734.957Z" fill="white"/>
<path d="M681.779 734.961C677.699 718.248 674.443 701.448 670.666 684.734C667.931 672.666 664.588 660.858 660.942 649.05C656.818 635.766 652.477 622.569 646.616 609.807C642.449 600.82 638.194 591.964 633.81 583.109C626.558 569.083 618.181 555.668 608.761 542.996C601.027 532.028 592.23 521.85 582.497 512.609C571.782 502.571 559.64 494.174 546.466 487.69C545.164 487.039 543.601 486.692 542.472 485.824C535.092 480.31 527.842 483.089 523.024 491.424C509.653 514.519 488.902 525.111 463.463 528.497C462.544 528.654 461.604 528.654 460.685 528.497C458.254 527.976 454.781 527.976 455.042 524.547C455.345 521.508 458.514 522.593 460.555 522.333C479.526 519.815 497.02 513.824 509.783 498.76C515.166 492.335 519.16 484.695 523.371 477.359C527.799 469.588 524.413 457.823 513.083 455.436C507.96 454.35 504.617 452.701 506.05 446.146C506.918 441.978 503.966 437.941 500.32 436.161C495.805 433.991 490.899 432.211 485.343 433.73C480.264 435.119 474.837 435.51 469.584 436.335C466.502 436.769 464.288 438.853 461.77 440.415C459.86 441.631 459.86 443.194 460.685 445.191C463.724 452.744 461.119 462.468 454.651 467.33C448.269 472.193 441.454 476.1 432.945 475.318C430.818 475.101 429.081 475.839 427.388 477.228C421.311 482.351 414.191 483.523 406.247 483.436C389.403 483.262 374.036 477.966 358.842 471.585C355.456 470.152 352.938 466.115 347.338 468.329C359.059 483.48 376.423 489.34 393.18 497.675C391.639 498.779 389.845 499.476 387.964 499.704C386.082 499.931 384.174 499.682 382.414 498.977C360.101 491.38 342.519 478.314 331.536 456.868C327.89 449.705 325.068 442.543 323.679 434.729C322.68 429.259 321.204 428.738 316.038 431.082C310.308 433.687 305.229 437.29 300.54 441.327C295.114 446.016 291.858 451.746 292.683 459.343C293.117 462.989 292.683 466.723 292.77 470.456C292.743 475.007 294.23 479.439 296.996 483.053C299.762 486.668 303.65 489.261 308.051 490.425C311.116 491.17 313.894 492.801 316.038 495.114C309.7 497.979 298.457 494.593 293.03 488.211C278.401 470.934 284.174 441.067 304.23 430.561L306.401 429.346C304.326 428.313 302.066 427.708 299.753 427.565C297.44 427.422 295.122 427.745 292.936 428.514C290.75 429.283 288.741 430.483 287.027 432.043C285.313 433.602 283.93 435.49 282.959 437.594C279.802 445.728 273.716 452.386 265.898 456.261C259.256 459.603 257.303 468.72 262.512 473.365C272.67 482.394 281.179 493.247 292.857 500.54C299.542 504.708 305.923 509.657 313.13 512.695C319.989 515.517 327.716 516.342 335.096 517.818C337.266 518.252 339.524 518.165 340.87 520.249C341 521.725 340.132 522.68 338.959 522.637C325.024 521.985 311.437 520.726 299.021 512.652C288.275 505.846 278.24 497.978 269.067 489.166C264.292 484.391 259.039 486.518 254.307 489.166C237.377 498.717 222.834 511.263 209.637 525.502C194.847 541.676 182.104 559.61 171.695 578.898C163.325 594.006 156 609.671 149.773 625.782C144.118 640.324 139.121 655.113 134.796 670.105C130.44 684.568 127.446 699.407 125.853 714.428C125.289 721.026 122.684 727.321 122.423 734.484C120.036 734.918 117.735 734.918 115 734.918C116.997 720.636 119.298 706.267 122.033 692.028C123.639 683.736 126.026 675.575 127.98 667.37C130.411 657.125 133.797 647.184 137.183 637.242C146.205 609.982 158.447 583.896 173.649 559.536C180.985 547.815 189.277 536.789 198.393 526.544C214.325 508.701 231.516 492.683 253.092 481.83C255.87 480.397 257.129 478.791 254.872 475.275C250.878 468.85 252.354 455.392 261.557 451.225C268.763 447.926 273.104 441.674 276.447 434.815C278.365 430.503 281.496 426.84 285.457 424.274C289.418 421.707 294.04 420.347 298.76 420.359C307.269 420.142 315.778 420.056 324.286 419.925C328.193 419.925 330.407 420.62 328.671 425.439C327.586 428.477 327.976 431.733 331.015 433.904C331.479 434.193 331.875 434.58 332.174 435.037C332.474 435.494 332.671 436.011 332.752 436.552C334.662 450.009 344.516 456.347 355.369 461.6C363.964 465.768 372.56 470.413 381.633 473.017C391.097 475.752 400.951 478.27 411.022 477.576C415.318 477.312 419.414 475.668 422.7 472.887C425.435 470.543 428.864 470.76 432.077 470.109C439.457 468.633 446.186 465.854 451.612 460.515C456.474 455.653 456.821 450.964 453.045 445.191C449.658 440.025 451.612 430.518 456.735 427.479C458.254 426.611 460.511 426.263 460.989 428.173C462.291 433.122 465.243 431.039 467.891 430.257C475.62 427.662 483.748 426.457 491.898 426.697C497.796 427.031 503.39 429.428 507.7 433.47C511.086 436.465 511.91 440.242 511.954 444.453C511.954 447.752 512.996 449.619 516.729 450.487C527.452 452.918 531.402 458.171 531.576 469.197C531.576 471.498 532.184 472.8 534.311 473.972C549.331 482.09 564.872 489.34 578.417 500.019C591.136 510.004 601.425 522.202 611.192 534.922C629.311 558.308 644.016 584.15 654.864 611.673C662.765 631.859 669.494 652.48 675.007 673.491C680.216 693.46 681.953 714.081 686.772 734.527C685.382 734.918 683.863 734.918 681.823 734.918L681.779 734.961Z" fill="black"/>
<path d="M601.779 734.949C597.742 719.147 596.439 702.911 592.142 687.197C588.756 674.868 586.064 662.278 581.636 650.297C578.51 641.875 575.558 633.366 571.434 625.248C565.921 614.396 561.32 603.022 556.371 591.822C555.763 590.519 555.155 589.087 556.978 588.001C558.889 586.829 560.278 587.741 561.276 589.174C563.447 592.343 565.704 595.512 567.441 598.941C574.386 612.485 581.332 626.16 586.107 640.616C589.363 650.514 592.88 660.368 595.311 670.57C597.004 677.733 598.87 684.896 600.52 692.015C603.559 705.994 605.686 720.233 606.815 734.515C605.339 734.949 603.776 734.949 601.779 734.949ZM209.471 734.949C208.901 722.4 209.541 709.825 211.381 697.398C212.987 684.809 213.291 672.089 216.156 659.63C217.849 652.25 220.063 645.044 221.8 637.751C225.012 623.816 229.657 610.185 236.82 597.639C237.862 595.902 238.904 594.166 240.032 592.429C241.031 590.997 241.812 588.653 244.156 589.738C246.631 590.953 245.546 593.298 244.938 595.121C243.657 598.959 242.208 602.74 240.597 606.451C232.783 623.816 226.271 641.701 222.972 660.281C219.803 678.514 216.113 696.877 216.894 715.674C217.198 721.752 216.2 727.83 215.765 734.428C213.812 734.949 211.858 734.949 209.514 734.949H209.471ZM387.587 591.605C386.936 587.35 388.803 584.355 390.453 581.229C395.401 571.983 394.099 568.249 385.417 562.736C377.733 557.83 370.093 552.751 366.229 543.635C363.711 537.557 364.319 531.349 363.538 525.228C363.103 522.103 364.579 518.283 368.877 517.979C372.958 517.718 377.95 516.459 379.99 521.625C381.466 525.359 380.902 529.005 377.299 532.044C370.787 537.601 371.265 540.596 378.905 544.677C384.896 547.889 391.277 550.451 396.487 555.052C406.819 564.169 407.774 579.363 398.44 589.434C395.488 592.603 395.054 596.076 395.836 600.113C396.226 601.98 397.008 604.541 394.49 605.453C392.189 606.321 391.668 603.716 390.496 602.414C387.761 599.462 387.414 595.902 387.587 591.605ZM463.557 607.971C464.078 609.447 465.554 610.228 464.86 611.704C455.917 611.834 449.709 601.112 453.573 592.603C455.743 587.698 459.39 583.66 460.432 578.147C461.734 570.984 460.432 567.207 453.92 564.125C442.199 558.525 436.642 549.799 438.596 536.602C439.203 532.522 439.204 528.962 433.473 527.616C429.566 526.661 428.611 522.32 429.479 518.5C430.348 514.81 433.3 512.466 436.859 513.03C440.159 513.594 444.413 514.549 444.109 519.715C444.022 521.018 443.935 522.363 444.977 523.362C449.752 528.137 448.711 533.824 447.582 539.467C446.627 544.286 447.582 548.28 451.836 551.102C454.615 552.925 457.263 554.965 460.171 556.572C463.188 558.069 465.807 560.262 467.811 562.97C469.815 565.677 471.147 568.822 471.698 572.145C472.25 575.468 472.003 578.875 470.981 582.085C469.958 585.294 468.187 588.215 465.815 590.606C459.607 597.552 458.999 601.763 463.557 607.971ZM483.83 471.876C491.123 468.837 491.558 464.583 491.427 457.29C491.427 455.119 490.385 452.948 491.775 450.821C496.593 451.863 499.415 457.941 497.852 463.845C496.61 468.434 493.836 472.46 489.99 475.255C486.145 478.051 481.459 479.447 476.711 479.212C474.185 479.161 471.676 479.636 469.344 480.608C467.012 481.579 464.909 483.026 463.167 484.856C459.824 487.895 456.004 489.414 451.446 486.766C459.607 482.685 464.946 473.395 475.626 474.524C478.578 474.828 480.835 473.005 483.787 471.919L483.83 471.876Z" fill="black"/>
<path d="M253.152 186.5C267.564 176.819 281.369 166.965 291.745 153.29C298.039 144.955 303.249 135.622 310.325 127.981C324.477 112.44 340.452 98.9823 359.727 89.6922C377.091 81.3573 395.324 78.6658 414.165 76.7557C428.317 75.3665 442.556 75.8874 456.577 78.3619C470.86 80.7929 481.105 86.61 482.103 104.582C482.32 108.88 483.927 110.66 488.181 110.313C500.77 109.227 512.274 113.438 523.344 118.648C535.065 124.161 543.183 136.316 534.11 152.812C542.299 156.355 550.061 160.811 557.248 166.096C568.448 174.214 574.005 190.841 568.275 202.866C564.107 211.548 555.382 214.5 546.569 216.714C538.755 218.668 530.854 217.799 522.736 216.28C520.305 221.967 518.829 227.958 512.621 230.91C504.848 234.825 496.051 236.236 487.443 234.947C475.982 233.21 465.477 228.348 457.359 220.795C447.808 211.809 437.563 211.722 426.103 213.632C419.33 214.76 412.428 213.936 405.873 212.329C395.324 209.812 385.036 206.339 374.617 203.17C367.237 200.869 361.593 203.3 358.338 210.246C353.258 221.012 353.302 232.906 351.479 244.237C349.888 256.494 344.81 268.036 336.849 277.49C329.773 285.651 327.906 295.375 326.604 305.49C326.213 308.355 326.821 311.742 323.348 313.044C319.745 314.39 318.095 311.264 316.055 309.224C311.063 304.145 309.673 297.329 307.373 290.948C305.032 284.144 301.505 277.81 296.954 272.237C291.441 265.595 285.884 266.16 279.85 272.064C275.628 276.15 273.18 281.731 273.034 287.605C273.034 289.341 272.036 290.904 270.516 291.729C265.524 284.045 259.881 276.752 255.756 268.634C251.285 259.778 245.555 251.704 241.387 242.587C232.488 223.399 235.527 200.261 253.108 186.5H253.152Z" fill="black"/>
<path d="M459.687 392.767C447.011 398.844 431.426 394.069 423.134 385.821C422.136 384.822 421.485 383.39 420.833 382.088C420.399 381.089 420.139 379.917 421.137 379.005C422.092 378.094 423.178 378.224 424.22 378.701C425.348 379.266 426.651 379.787 427.475 380.655C432.728 386.298 439.631 387.774 446.88 388.903C450.874 389.424 453.913 386.95 457.386 386.038C459.687 385.43 462.161 382.131 463.898 385.734C465.33 388.686 463.333 391.334 459.687 392.68V392.767ZM409.46 376.14C411.37 370.844 415.407 368.847 419.965 367.675C422.136 367.111 424.654 366.937 425.609 369.542C426.651 372.58 424.22 374.274 422.006 374.751C418.837 375.359 416.796 376.748 415.32 379.613C414.365 381.48 412.846 383.824 410.241 382.652C407.116 381.35 408.591 378.745 409.46 376.14Z" fill="black"/>
<path d="M459.236 343.383C461.407 336.611 456.632 331.966 454.721 326.669C450.988 316.381 447.689 306.092 448.21 294.979C448.297 292.982 447.906 290.334 450.814 290.377C453.028 290.464 454.244 292.635 454.287 294.719C454.982 310.13 460.582 324.108 466.877 337.826C468.049 340.431 467.788 342.645 466.399 345.163C462.709 351.718 456.718 353.845 449.816 354.062C446.039 354.192 443.304 352.109 441.915 347.463C447.993 346.682 454.678 349.547 459.236 343.383Z" fill="black"/>
<path d="M395.269 301.526C397.439 296.317 399.176 288.763 405.731 291.759C414.717 295.839 411.765 305.086 409.942 312.336C409.247 315.071 403.647 319.238 401.998 318.544C394.922 315.592 393.663 309.123 395.269 301.526ZM493.769 317.502C490.036 320.758 486.389 320.801 484.132 316.851C480.225 309.905 480.399 302.612 485.565 296.36C486.65 295.058 491.555 294.798 492.641 295.926C498.718 302.438 498.979 309.731 493.769 317.502Z" fill="black"/>
<path d="M386.329 272.259C398.354 262.665 412.159 264.011 425.704 264.445C428.178 264.445 431 265.009 431.911 268.048C432.823 271.391 429.914 272.346 428.091 274.039C425.203 276.992 421.448 278.946 417.372 279.618C413.297 280.289 409.113 279.643 405.43 277.772C403.211 276.873 400.821 276.469 398.429 276.589C396.038 276.709 393.701 277.35 391.582 278.467C390.714 278.901 389.932 279.291 389.064 279.595C386.329 280.681 382.856 282.2 380.99 279.422C379.08 276.513 383.421 275.515 384.593 273.474C384.853 273.04 385.461 272.78 386.286 272.259H386.329ZM500.979 268.656C504.322 270.522 507.274 272.997 509.661 276.036C510.747 277.338 511.832 278.77 510.964 280.464C509.922 282.33 508.055 281.636 506.449 281.419C501.022 280.767 496.16 277.425 490.387 278.293C488.216 278.64 486.089 278.597 483.875 279.378C478.231 281.419 470.417 276.6 469.549 270.783C469.115 268.439 469.983 267.093 472.501 266.442C482.138 263.967 491.602 262.535 500.979 268.656Z" fill="black"/>
<defs>
<linearGradient id="paint0_linear_181_25" x1="151.5" y1="1" x2="151.5" y2="301" gradientUnits="userSpaceOnUse">
<stop/>
<stop offset="1" stop-opacity="0.15"/>
</linearGradient>
<linearGradient id="paint1_linear_181_25" x1="76.5" y1="1" x2="76.5" y2="301" gradientUnits="userSpaceOnUse">
<stop/>
<stop offset="1" stop-opacity="0.15"/>
</linearGradient>
<linearGradient id="paint2_linear_181_25" x1="1" y1="226.5" x2="188.5" y2="226.5" gradientUnits="userSpaceOnUse">
<stop/>
<stop offset="1" stop-opacity="0.15"/>
</linearGradient>
<linearGradient id="paint3_linear_181_25" x1="1" y1="76.5" x2="188.5" y2="76.5" gradientUnits="userSpaceOnUse">
<stop/>
<stop offset="1" stop-opacity="0.15"/>
</linearGradient>
</defs>
</svg>
